<?xml version="1.0" encoding="UTF-8" standalone="no"?>
<!-- Created with Inkscape (http://www.inkscape.org/) -->

<svg
   width="428.26352mm"
   height="135.90741mm"
   viewBox="0 0 428.26353 135.90741"
   version="1.1"
   id="svg1"
   xml:space="preserve"
   inkscape:version="1.3 (0e150ed6c4, 2023-07-21)"
   sodipodi:docname="drawing.svg"
   xmlns:inkscape="http://www.inkscape.org/namespaces/inkscape"
   xmlns:sodipodi="http://sodipodi.sourceforge.net/DTD/sodipodi-0.dtd"
   xmlns="http://www.w3.org/2000/svg"
   xmlns:svg="http://www.w3.org/2000/svg"><sodipodi:namedview
     id="namedview1"
     pagecolor="#ffffff"
     bordercolor="#000000"
     borderopacity="0.25"
     inkscape:showpageshadow="2"
     inkscape:pageopacity="0.0"
     inkscape:pagecheckerboard="0"
     inkscape:deskcolor="#d1d1d1"
     inkscape:document-units="mm"
     inkscape:zoom="1.0242632"
     inkscape:cx="805.45702"
     inkscape:cy="263.11596"
     inkscape:window-width="1920"
     inkscape:window-height="1009"
     inkscape:window-x="-8"
     inkscape:window-y="-8"
     inkscape:window-maximized="1"
     inkscape:current-layer="layer1" /><defs
     id="defs1" /><g
     inkscape:label="Layer 1"
     inkscape:groupmode="layer"
     id="layer1"
     transform="translate(260.0024,-80.602707)"><path
       d="m 168.13973,106.67641 h -5.29909 L 150.54066,89.947727 v 16.728683 h -5.49249 V 81.025816 h 5.6472 l 11.95187,16.113403 V 81.025816 h 5.49249 z"
       id="path1"
       style="mix-blend-mode:normal;fill:#020d6e;fill-rule:nonzero;stroke:none;stroke-width:2.04094;stroke-linecap:butt;stroke-linejoin:miter;stroke-miterlimit:10;stroke-dasharray:none;stroke-dashoffset:0;fill-opacity:1" /><path
       d="m 134.14305,106.67641 h -5.84056 l -4.52547,-17.613191 -4.4868,17.613191 h -5.84056 l -7.38775,-25.650668 h 6.15001 l 4.52544,18.536178 4.91229,-18.536178 h 4.29341 l 4.87357,18.536178 4.48681,-18.536178 h 6.18868 z"
       id="path2"
       style="mix-blend-mode:normal;fill:#020d6e;fill-rule:nonzero;stroke:none;stroke-width:2.04094;stroke-linecap:butt;stroke-linejoin:miter;stroke-miterlimit:10;stroke-dasharray:none;stroke-dashoffset:0;fill-opacity:1" /><path
       d="m 91.018085,107.13789 c -3.893699,0 -7.116954,-1.24344 -9.669783,-3.7303 -2.527056,-2.51251 -3.790584,-5.691605 -3.790584,-9.537289 0,-3.845684 1.263528,-7.011951 3.790584,-9.498826 2.55282,-2.512518 5.776084,-3.768768 9.669783,-3.768768 3.919509,0 7.142782,1.243434 9.669825,3.7303 2.55284,2.486876 3.82927,5.665977 3.82927,9.537294 0,3.871308 -1.27643,7.050399 -3.82927,9.537289 -2.527043,2.48686 -5.750326,3.7303 -9.669825,3.7303 z m -5.68584,-7.229862 c 1.444023,1.589542 3.339306,2.384312 5.68584,2.384312 2.346562,0 4.241855,-0.79477 5.685878,-2.384312 1.444023,-1.589541 2.16602,-3.602117 2.16602,-6.037727 0,-2.435601 -0.722007,-4.448167 -2.16602,-6.037727 -1.444023,-1.589532 -3.339325,-2.384298 -5.685878,-2.384298 -2.346534,0 -4.241808,0.794766 -5.68584,2.384298 -1.418233,1.58956 -2.127349,3.602126 -2.127349,6.037727 0,2.435601 0.709116,4.448186 2.127349,6.037727 z"
       id="path3"
       style="mix-blend-mode:normal;fill:#020d6e;fill-rule:nonzero;stroke:none;stroke-width:2.04094;stroke-linecap:butt;stroke-linejoin:miter;stroke-miterlimit:10;stroke-dasharray:none;stroke-dashoffset:0;fill-opacity:1" /><path
       d="M 57.7897,106.67641 H 52.297264 V 96.17771 L 42.356706,81.025742 h 6.266034 l 6.420728,10.306408 6.343423,-10.306408 h 6.266014 L 57.7897,96.17771 Z"
       id="path4"
       style="mix-blend-mode:normal;fill:#020d6e;fill-rule:nonzero;stroke:none;stroke-width:2.04094;stroke-linecap:butt;stroke-linejoin:miter;stroke-miterlimit:10;stroke-dasharray:none;stroke-dashoffset:0;fill-opacity:1" /><path
       d="m 41.236427,106.67641 h -6.304732 l -5.066958,-9.114259 h -4.022641 v 9.114259 H 20.349641 V 81.025816 h 12.067925 c 2.65598,0 4.757557,0.769142 6.304723,2.307409 1.572965,1.538266 2.359434,3.525209 2.359434,5.960809 0,2.10231 -0.554403,3.807217 -1.663208,5.114732 -1.083034,1.307534 -2.411014,2.140777 -3.983961,2.499692 z M 31.605288,92.755069 c 1.134596,0 2.062906,-0.307659 2.784913,-0.922967 0.722016,-0.640914 1.083025,-1.486955 1.083025,-2.538151 0,-1.051159 -0.361009,-1.884374 -1.083025,-2.499683 -0.722007,-0.640913 -1.650308,-0.961379 -2.784913,-0.961379 h -5.763202 v 6.922235 z"
       id="path5"
       style="mix-blend-mode:normal;fill:#020d6e;fill-rule:nonzero;stroke:none;stroke-width:2.04094;stroke-linecap:butt;stroke-linejoin:miter;stroke-miterlimit:10;stroke-dasharray:none;stroke-dashoffset:0;fill-opacity:1" /><path
       d="M 15.477476,106.67641 H -2.7791486 V 81.025816 H 15.477476 v 4.807101 H 2.7133065 v 5.4224 H 15.206711 v 4.807101 H 2.7133065 v 5.806962 H 15.477476 Z"
       id="path6"
       style="mix-blend-mode:normal;fill:#020d6e;fill-rule:nonzero;stroke:none;stroke-width:2.04094;stroke-linecap:butt;stroke-linejoin:miter;stroke-miterlimit:10;stroke-dasharray:none;stroke-dashoffset:0;fill-opacity:1" /><path
       d="m -16.275308,106.67641 h -6.884916 l -9.979247,-25.650668 h 6.266051 l 7.155645,19.728328 7.116991,-19.728328 h 6.2660614 z"
       id="path7"
       style="mix-blend-mode:normal;fill:#020d6e;fill-rule:nonzero;stroke:none;stroke-width:2.04094;stroke-linecap:butt;stroke-linejoin:miter;stroke-miterlimit:10;stroke-dasharray:none;stroke-dashoffset:0;fill-opacity:1" /><path
       d="m -58.965672,107.13789 c -4.589935,0 -8.225787,-1.35881 -10.907548,-4.07642 l 2.978298,-4.153336 c 2.21761,2.307416 4.950952,3.461116 8.200006,3.461116 1.418242,0 2.514166,-0.26922 3.287754,-0.80765 0.79934,-0.56403 1.199002,-1.24344 1.199002,-2.038204 0,-0.692188 -0.373927,-1.269047 -1.12177,-1.730568 -0.722007,-0.461493 -1.637418,-0.794794 -2.746232,-0.999893 -1.083034,-0.2051 -2.269201,-0.499952 -3.558501,-0.884555 -1.289309,-0.38453 -2.488366,-0.820371 -3.597172,-1.307534 -1.083024,-0.487079 -1.998435,-1.256213 -2.746223,-2.307409 -0.722016,-1.051159 -1.083024,-2.33306 -1.083024,-3.845684 0,-2.20485 0.889621,-4.050784 2.668862,-5.537776 1.77925,-1.512643 4.151583,-2.268969 7.116991,-2.268969 4.100031,0 7.452237,1.192168 10.056637,3.576494 l -3.055651,3.99949 c -2.037116,-1.871548 -4.5384,-2.807323 -7.503827,-2.807323 -1.160367,0 -2.062878,0.230742 -2.707533,0.692207 -0.644691,0.461493 -0.967046,1.089627 -0.967046,1.884402 0,0.6153 0.361008,1.140874 1.083024,1.576716 0.74776,0.410209 1.663162,0.717868 2.746223,0.922976 1.108814,0.2051 2.294981,0.512759 3.5585,0.922949 1.289328,0.384613 2.475504,0.833271 3.558519,1.345983 1.108805,0.487163 2.024216,1.269131 2.746232,2.345877 0.747844,1.05114 1.121761,2.320216 1.121761,3.807226 0,2.461215 -0.889621,4.448145 -2.668862,5.960805 -1.753478,1.51262 -4.306325,2.26894 -7.658549,2.26894 z"
       id="path8"
       style="mix-blend-mode:normal;fill:#020d6e;fill-rule:nonzero;stroke:none;stroke-width:2.04094;stroke-linecap:butt;stroke-linejoin:miter;stroke-miterlimit:10;stroke-dasharray:none;stroke-dashoffset:0;fill-opacity:1" /><path
       d="m -73.426331,84.751689 c 0,1.410102 -0.361008,2.730452 -1.083024,3.961051 -0.722017,1.256268 -1.688999,2.320243 -2.900946,3.191917 l -2.127359,-1.73055 c 0.644692,-0.333245 1.263565,-0.85882 1.856602,-1.576715 0.593121,-0.692272 0.967047,-1.371672 1.121761,-2.038218 -0.232112,0.07668 -0.477069,0.115061 -0.734842,0.115061 -0.747843,0 -1.379598,-0.256384 -1.895283,-0.769143 -0.489895,-0.51274 -0.734842,-1.179323 -0.734842,-1.99975 0,-0.846041 0.296556,-1.563899 0.889676,-2.153574 0.593047,-0.615309 1.302163,-0.922968 2.127359,-0.922968 0.954082,0 1.766359,0.358925 2.436804,1.076774 0.696263,0.692188 1.044399,1.640798 1.044399,2.845819 z"
       id="path9"
       style="mix-blend-mode:normal;fill:#020d6e;fill-rule:nonzero;stroke:none;stroke-width:2.04094;stroke-linecap:butt;stroke-linejoin:miter;stroke-miterlimit:10;stroke-dasharray:none;stroke-dashoffset:0;fill-opacity:1" /><path
       d="m -97.174096,107.13789 c -3.893704,0 -7.116994,-1.24344 -9.669824,-3.7303 -2.52704,-2.51251 -3.79056,-5.691605 -3.79056,-9.537289 0,-3.845684 1.26352,-7.011951 3.79056,-9.498826 2.55283,-2.512518 5.77612,-3.768768 9.669824,-3.768768 3.919499,0 7.142773,1.243434 9.66982,3.7303 2.552828,2.486876 3.829247,5.665977 3.829247,9.537294 0,3.871308 -1.276419,7.050399 -3.829247,9.537289 -2.527047,2.48686 -5.750321,3.7303 -9.66982,3.7303 z m -5.685854,-7.229862 c 1.44402,1.589542 3.339311,2.384312 5.685845,2.384312 2.346543,0 4.241826,-0.79477 5.685849,-2.384312 1.444023,-1.589541 2.16604,-3.602117 2.16604,-6.037727 0,-2.435601 -0.722017,-4.448167 -2.16604,-6.037727 -1.444023,-1.589532 -3.339315,-2.384298 -5.685849,-2.384298 -2.346544,0 -4.241825,0.794766 -5.685845,2.384298 -1.41824,1.58956 -2.12736,3.602126 -2.12736,6.037727 0,2.435601 0.70912,4.448186 2.12736,6.037727 z"
       id="path10"
       style="mix-blend-mode:normal;fill:#020d6e;fill-rule:nonzero;stroke:none;stroke-width:2.04094;stroke-linecap:butt;stroke-linejoin:miter;stroke-miterlimit:10;stroke-dasharray:none;stroke-dashoffset:0;fill-opacity:1" /><path
       d="m -125.52407,107.17668 c -3.86793,0 -7.12989,-1.23062 -9.78586,-3.69186 -2.63019,-2.46124 -3.94528,-5.665961 -3.94528,-9.614176 0,-3.973877 1.31509,-7.17862 3.94528,-9.614221 2.65597,-2.4356 5.91793,-3.653392 9.78586,-3.653392 4.69308,0 8.25157,1.910017 10.67548,5.73005 l -4.56416,2.461252 c -0.61886,-0.974242 -1.46981,-1.769017 -2.55283,-2.384316 -1.05724,-0.640914 -2.2434,-0.96138 -3.55849,-0.96138 -2.34655,0 -4.28051,0.794775 -5.8019,2.384317 -1.52138,1.589559 -2.28207,3.602126 -2.28207,6.037727 0,2.4356 0.7607,4.448167 2.28207,6.037708 1.52139,1.589561 3.45535,2.384331 5.8019,2.384331 1.08302,0 2.12736,-0.19226 3.13302,-0.57678 1.00565,-0.38461 1.79214,-0.84609 2.35943,-1.38446 v -3.076534 h -6.80755 v -4.768633 h 12.30001 v 9.844927 c -2.91385,3.23037 -6.57548,4.84556 -10.98492,4.84556 z"
       id="path11"
       style="mix-blend-mode:normal;fill:#020d6e;fill-rule:nonzero;stroke:none;stroke-width:2.04094;stroke-linecap:butt;stroke-linejoin:miter;stroke-miterlimit:10;stroke-dasharray:none;stroke-dashoffset:0;fill-opacity:1" /><path
       d="m -139.48632,106.67674 h -6.26604 l -1.58586,-4.34561 h -11.06227 l -1.62453,4.34561 h -6.26604 l 9.97925,-25.650674 h 6.8849 z m -9.36038,-9.152723 -4.02264,-11.037083 -4.02265,11.037083 z"
       id="path12"
       style="mix-blend-mode:normal;fill:#020d6e;fill-rule:nonzero;stroke:none;stroke-width:2.04094;stroke-linecap:butt;stroke-linejoin:miter;stroke-miterlimit:10;stroke-dasharray:none;stroke-dashoffset:0;fill-opacity:1" /><path
       d="m -178.8967,107.13821 c -3.9195,0 -7.19434,-1.23062 -9.82453,-3.69183 -2.6044,-2.48688 -3.9066,-5.678786 -3.9066,-9.575736 0,-3.89696 1.3022,-7.07607 3.9066,-9.537313 2.63019,-2.486866 5.90503,-3.7303 9.82453,-3.7303 4.82201,0 8.41919,2.089484 10.79152,6.268469 l -4.71887,2.307409 c -0.5673,-1.076783 -1.40535,-1.961292 -2.51416,-2.653535 -1.08302,-0.717859 -2.26918,-1.076783 -3.55849,-1.076783 -2.34654,0 -4.28051,0.794775 -5.80189,2.384335 -1.52139,1.589541 -2.28207,3.602117 -2.28207,6.037727 0,2.435582 0.76069,4.448148 2.28207,6.037708 1.52138,1.589539 3.45534,2.384319 5.80189,2.384319 1.28931,0 2.47548,-0.34609 3.55849,-1.03827 1.10881,-0.69225 1.94686,-1.589588 2.51416,-2.691976 l 4.71887,2.268946 c -2.44969,4.2046 -6.04686,6.30689 -10.79152,6.30689 z"
       id="path13"
       style="mix-blend-mode:normal;fill:#020d6e;fill-rule:nonzero;stroke:none;stroke-width:2.04094;stroke-linecap:butt;stroke-linejoin:miter;stroke-miterlimit:10;stroke-dasharray:none;stroke-dashoffset:0;fill-opacity:1" /><path
       d="m -197.26745,106.67674 h -5.49246 V 81.026066 h 5.49246 z"
       id="path14"
       style="mix-blend-mode:normal;fill:#020d6e;fill-rule:nonzero;stroke:none;stroke-width:2.04094;stroke-linecap:butt;stroke-linejoin:miter;stroke-miterlimit:10;stroke-dasharray:none;stroke-dashoffset:0;fill-opacity:1" /><path
       d="m -208.5986,106.67674 h -5.53113 V 95.908852 h -12.18398 v 10.767888 h -5.49246 V 81.026066 h 5.49246 v 10.075685 h 12.18398 V 81.026066 h 5.53113 z"
       id="path15"
       style="mix-blend-mode:normal;fill:#020d6e;fill-rule:nonzero;stroke:none;stroke-width:2.04094;stroke-linecap:butt;stroke-linejoin:miter;stroke-miterlimit:10;stroke-dasharray:none;stroke-dashoffset:0;fill-opacity:1" /><path
       d="m -246.27126,107.13821 c -3.9195,0 -7.19434,-1.23062 -9.82453,-3.69183 -2.6044,-2.48688 -3.90661,-5.678786 -3.90661,-9.575736 0,-3.89696 1.30221,-7.07607 3.90661,-9.537313 2.63019,-2.486866 5.90503,-3.7303 9.82453,-3.7303 4.82201,0 8.41919,2.089484 10.79151,6.268469 l -4.71887,2.307409 c -0.5673,-1.076783 -1.40534,-1.961292 -2.51415,-2.653535 -1.08302,-0.717859 -2.26918,-1.076783 -3.55849,-1.076783 -2.34654,0 -4.28051,0.794775 -5.80189,2.384335 -1.52139,1.589541 -2.28208,3.602117 -2.28208,6.037727 0,2.435582 0.7607,4.448148 2.28208,6.037708 1.52138,1.589539 3.45535,2.384319 5.80189,2.384319 1.28931,0 2.47548,-0.34609 3.55849,-1.03827 1.10881,-0.69225 1.94685,-1.589588 2.51415,-2.691976 l 4.71887,2.268946 c -2.44968,4.2046 -6.04685,6.30689 -10.79151,6.30689 z"
       id="path16"
       style="mix-blend-mode:normal;fill:#020d6e;fill-rule:nonzero;stroke:none;stroke-width:2.04094;stroke-linecap:butt;stroke-linejoin:miter;stroke-miterlimit:10;stroke-dasharray:none;stroke-dashoffset:0;fill-opacity:1" /><path
       d="M 59.299445,214.54201 H 42.291587 l -52.378195,-72.06303 v 72.06303 H -27.696513 V 113.56294 H -9.6350704 L 41.68954,183.65787 v -70.09493 h 17.609895 z"
       id="path17"
       style="mix-blend-mode:normal;fill:#020d6e;fill-rule:nonzero;stroke:none;stroke-width:7.98816;stroke-linecap:butt;stroke-linejoin:miter;stroke-miterlimit:10;stroke-dasharray:none;stroke-dashoffset:0;fill-opacity:1" /><path
       d="m -77.418099,216.51012 c -14.850523,0 -27.343011,-4.84458 -37.477491,-14.53372 -10.13448,-9.68914 -15.20171,-22.30522 -15.20171,-37.84823 0,-15.543 5.06723,-28.10861 15.20171,-37.69683 10.13448,-9.68915 22.626978,-14.53372 37.477491,-14.53372 17.25875,0 30.754669,7.01453 40.487783,21.0436 l -14.449148,8.17524 c -2.809574,-3.93623 -6.522223,-7.16595 -11.137939,-9.68917 -4.515361,-2.52321 -9.482259,-3.78481 -14.900686,-3.78481 -9.933798,0 -18.211962,3.43156 -24.834481,10.29471 -6.52219,6.86314 -9.78328,15.59347 -9.78328,26.19097 0,10.59751 3.26109,19.3783 9.78328,26.34237 6.622519,6.86315 14.900683,10.29472 24.834481,10.29472 4.716043,0 9.181231,-0.90837 13.395572,-2.72508 4.314678,-1.81671 7.776472,-3.93621 10.385372,-6.35849 v -15.74486 h -29.951938 v -15.59348 h 47.561853 v 37.84823 c -10.937219,12.21236 -24.734166,18.31854 -41.39085,18.31854 z"
       id="path18"
       style="mix-blend-mode:normal;fill:#020d6e;fill-rule:nonzero;stroke:none;stroke-width:7.98816;stroke-linecap:butt;stroke-linejoin:miter;stroke-miterlimit:10;stroke-dasharray:none;stroke-dashoffset:0;fill-opacity:1" /><path
       d="m -154.42038,214.54201 h -18.81401 l -19.56658,-74.48531 -19.41603,74.48531 h -18.814 l -28.7478,-100.97907 h 19.71707 l 19.56657,77.81596 20.77065,-77.81596 h 13.99762 l 20.77067,77.81596 19.41605,-77.81596 h 19.71708 z"
       id="path19"
       style="mix-blend-mode:normal;fill:#020d6e;fill-rule:nonzero;stroke:none;stroke-width:7.98816;stroke-linecap:butt;stroke-linejoin:miter;stroke-miterlimit:10;stroke-dasharray:none;stroke-dashoffset:0;fill-opacity:1" /><path
       d="M 67.299472,214.54199 V 113.56291 H 168.26113 v 100.97908 z"
       fill="#011b96"
       stroke-width="0.586666"
       id="path20"
       style="mix-blend-mode:normal;fill-rule:nonzero;stroke:none;stroke-linecap:butt;stroke-linejoin:miter;stroke-miterlimit:10;stroke-dasharray:none;stroke-dashoffset:0;fill:#020d6e;fill-opacity:1" /><path
       d="m 140.55593,121.17486 c 5.84004,5.64627 8.7605,13.33698 8.7605,23.07197 v 3.94279 c 0,8.66413 -1.94697,16.64716 -5.84033,23.94838 l -22.04031,42.40384 h -21.39371 l 20.07418,-35.83252 c -2.92002,1.1682 -5.59691,1.75209 -8.03027,1.75209 -7.59209,0 -13.772771,-2.531 -18.542126,-7.59318 -4.769374,-5.15955 -7.153839,-12.07171 -7.153839,-20.73583 v -7.59319 c 0,-9.63762 2.968547,-17.37716 8.905947,-23.21816 5.937378,-5.84099 13.480208,-8.76126 22.629608,-8.76126 9.24676,0 16.79031,2.87142 22.63035,8.61506 z m -31.39004,12.85026 c -2.04401,2.33636 -3.06637,5.59783 -3.06637,9.78388 v 7.59318 c 0,4.18606 1.02236,7.49633 3.06637,9.93008 2.14135,2.33639 5.01292,3.5042 8.6143,3.5042 3.69868,0 6.56953,-1.16781 8.61356,-3.5042 2.14135,-2.43375 3.21255,-5.74402 3.21255,-9.93008 V 143.809 c 0,-4.18605 -1.0712,-7.44751 -3.21255,-9.78388 -2.04403,-2.43374 -4.91488,-3.6504 -8.61356,-3.6504 -3.60138,0 -6.47295,1.21666 -8.6143,3.6504 z"
       fill="#ffffff"
       stroke-width="0.245021"
       id="path21"
       style="mix-blend-mode:normal;fill-rule:nonzero;stroke:none;stroke-linecap:butt;stroke-linejoin:miter;stroke-miterlimit:10;stroke-dasharray:none;stroke-dashoffset:0" /></g></svg>
